<svg xmlns="http://www.w3.org/2000/svg" xmlns:xlink="http://www.w3.org/1999/xlink" width="1024" zoomAndPan="magnify" viewBox="0 0 768 767.999994" height="1024" preserveAspectRatio="xMidYMid meet" version="1.0"><defs><g/><clipPath id="dec1ffe520"><path d="M 12.851562 27.410156 L 756 27.410156 L 756 740.589844 L 12.851562 740.589844 Z M 12.851562 27.410156 " clip-rule="nonzero"/></clipPath><clipPath id="c1ea552ea5"><path d="M 48.851562 27.410156 L 719.148438 27.410156 C 728.699219 27.410156 737.855469 31.203125 744.605469 37.953125 C 751.355469 44.707031 755.148438 53.863281 755.148438 63.410156 L 755.148438 704.589844 C 755.148438 714.136719 751.355469 723.292969 744.605469 730.046875 C 737.855469 736.796875 728.699219 740.589844 719.148438 740.589844 L 48.851562 740.589844 C 39.300781 740.589844 30.144531 736.796875 23.394531 730.046875 C 16.640625 723.292969 12.851562 714.136719 12.851562 704.589844 L 12.851562 63.410156 C 12.851562 53.863281 16.640625 44.707031 23.394531 37.953125 C 30.144531 31.203125 39.300781 27.410156 48.851562 27.410156 Z M 48.851562 27.410156 " clip-rule="nonzero"/></clipPath><clipPath id="36cf7b98b3"><path d="M 0.851562 0.410156 L 742 0.410156 L 742 713.589844 L 0.851562 713.589844 Z M 0.851562 0.410156 " clip-rule="nonzero"/></clipPath><clipPath id="c47691bc1b"><path d="M 36.851562 0.410156 L 707.148438 0.410156 C 716.699219 0.410156 725.855469 4.203125 732.605469 10.953125 C 739.355469 17.707031 743.148438 26.863281 743.148438 36.410156 L 743.148438 677.589844 C 743.148438 687.136719 739.355469 696.292969 732.605469 703.046875 C 725.855469 709.796875 716.699219 713.589844 707.148438 713.589844 L 36.851562 713.589844 C 27.300781 713.589844 18.144531 709.796875 11.394531 703.046875 C 4.640625 696.292969 0.851562 687.136719 0.851562 677.589844 L 0.851562 36.410156 C 0.851562 26.863281 4.640625 17.707031 11.394531 10.953125 C 18.144531 4.203125 27.300781 0.410156 36.851562 0.410156 Z M 36.851562 0.410156 " clip-rule="nonzero"/></clipPath><clipPath id="c3b509512d"><rect x="0" width="744" y="0" height="714"/></clipPath><clipPath id="b820686776"><path d="M 49.449219 49.449219 L 718.449219 49.449219 L 718.449219 718.449219 L 49.449219 718.449219 Z M 49.449219 49.449219 " clip-rule="nonzero"/></clipPath><clipPath id="834ab319ba"><rect x="0" width="354" y="0" height="676"/></clipPath></defs><rect x="-76.8" width="921.6" fill="#ffffff" y="-76.799999" height="921.599993" fill-opacity="1"/><rect x="-76.8" width="921.6" fill="#ffffff" y="-76.799999" height="921.599993" fill-opacity="1"/><g clip-path="url(#dec1ffe520)"><g clip-path="url(#c1ea552ea5)"><g transform="matrix(1, 0, 0, 1, 12, 27)"><g clip-path="url(#c3b509512d)"><g clip-path="url(#36cf7b98b3)"><g clip-path="url(#c47691bc1b)"><path fill="#000000" d="M 0.851562 0.410156 L 741.886719 0.410156 L 741.886719 713.589844 L 0.851562 713.589844 Z M 0.851562 0.410156 " fill-opacity="1" fill-rule="nonzero"/></g></g></g></g></g></g><g clip-path="url(#b820686776)"><path fill="#ffffff" d="M 383.914062 116.300781 C 531.472656 116.300781 651.53125 236.359375 651.53125 383.914062 C 651.53125 531.472656 531.472656 651.53125 383.914062 651.53125 C 236.359375 651.53125 116.300781 531.472656 116.300781 383.914062 C 116.300781 236.359375 236.359375 116.300781 383.914062 116.300781 M 383.914062 49.394531 C 199.160156 49.394531 49.394531 199.160156 49.394531 383.914062 C 49.394531 568.671875 199.160156 718.4375 383.914062 718.4375 C 568.671875 718.4375 718.4375 568.671875 718.4375 383.914062 C 718.4375 199.160156 568.671875 49.394531 383.914062 49.394531 Z M 383.914062 49.394531 " fill-opacity="1" fill-rule="nonzero"/></g><g transform="matrix(1, 0, 0, 1, 89, 92)"><g clip-path="url(#834ab319ba)"><g fill="#ffffff" fill-opacity="1"><g transform="translate(0.772252, 478.402901)"><g><path d="M 185.1875 0 L 23.90625 0 L 23.90625 -380.21875 L 189.40625 -380.21875 C 219.726562 -380.21875 243.71875 -376.625 261.375 -369.4375 C 279.03125 -362.25 291.6875 -351.851562 299.34375 -338.25 C 307 -324.65625 310.828125 -308.015625 310.828125 -288.328125 L 310.828125 -287.390625 C 310.828125 -263.328125 304.890625 -244.179688 293.015625 -229.953125 C 281.140625 -215.734375 264.890625 -206.28125 244.265625 -201.59375 C 270.828125 -197.53125 291.375 -187.53125 305.90625 -171.59375 C 320.4375 -155.65625 327.703125 -135.179688 327.703125 -110.171875 L 327.703125 -108.765625 C 327.703125 -81.265625 321.375 -59.617188 308.71875 -43.828125 C 296.0625 -28.046875 279.023438 -16.796875 257.609375 -10.078125 C 236.203125 -3.359375 212.0625 0 185.1875 0 Z M 111.109375 -299.109375 L 111.109375 -225.5 L 176.75 -225.5 C 191.4375 -225.5 202.921875 -228.3125 211.203125 -233.9375 C 219.484375 -239.570312 223.625 -248.640625 223.625 -261.140625 L 223.625 -263.015625 C 223.625 -276.453125 219.796875 -285.828125 212.140625 -291.140625 C 204.484375 -296.453125 193.3125 -299.109375 178.625 -299.109375 Z M 111.109375 -163.15625 L 111.109375 -81.578125 L 190.8125 -81.578125 C 206.4375 -81.578125 218.3125 -85.171875 226.4375 -92.359375 C 234.570312 -99.546875 238.640625 -109.703125 238.640625 -122.828125 L 238.640625 -124.703125 C 238.640625 -136.898438 234.335938 -146.359375 225.734375 -153.078125 C 217.140625 -159.796875 205.03125 -163.15625 189.40625 -163.15625 Z M 111.109375 -163.15625 "/></g></g></g></g></g></svg>