<svg xmlns="http://www.w3.org/2000/svg" width="1600" height="420" viewBox="0 0 1600 420" fill="none">
  <rect width="1600" height="420" fill="#FFFFFF"/>
  <g transform="translate(120 95)">
    <!-- Icon -->
    <g transform="translate(0 6)">
      <path d="M78 8H142V34H96C84.954 34 76 42.954 76 54V102C76 113.046 84.954 122 96 122H112V148H78C49.281 148 26 124.719 26 96V60C26 31.281 49.281 8 78 8Z" fill="#050505"/>
      <path d="M110 34H158C186.719 34 210 57.281 210 86V104C210 132.719 186.719 156 158 156H94V130H158C169.046 130 178 121.046 178 110V80C178 68.954 169.046 60 158 60H136C121.641 60 110 48.359 110 34Z" fill="#050505"/>
      <path d="M117 8H145L119 38H91L117 8Z" fill="#050505"/>
      <rect x="140" y="82" width="16" height="16" rx="3" fill="#050505"/>
    </g>

    <!-- Wordmark -->
    <g transform="translate(285 0)" fill="#050505">
      <text x="0" y="105" font-family="Inter, Arial, Helvetica, sans-serif" font-size="78" font-weight="500" letter-spacing="-2.2">OpenBroker</text>
      <text x="575" y="105" font-family="Inter, Arial, Helvetica, sans-serif" font-size="78" font-weight="400" letter-spacing="-1.2">Labs</text>
    </g>
  </g>
</svg>
